<svg width="40" height="40" viewBox="0 0 40 40" fill="none" xmlns="http://www.w3.org/2000/svg">
<path fill-rule="evenodd" clip-rule="evenodd" d="M23 8H9C7.4087 8 5.88258 8.63214 4.75736 9.75736C3.63214 10.8826 3 12.4087 3 14V26C3 27.5913 3.63214 29.1174 4.75736 30.2426C5.88258 31.3679 7.4087 32 9 32H23C24.5913 32 26.1174 31.3679 27.2426 30.2426C28.3679 29.1174 29 27.5913 29 26V14C29 12.4087 28.3679 10.8826 27.2426 9.75736C26.1174 8.63214 24.5913 8 23 8ZM7 14C7 13.4696 7.21071 12.9609 7.58579 12.5858C7.96086 12.2107 8.46957 12 9 12H23C23.5304 12 24.0391 12.2107 24.4142 12.5858C24.7893 12.9609 25 13.4696 25 14V26C25 26.5304 24.7893 27.0391 24.4142 27.4142C24.0391 27.7893 23.5304 28 23 28H9C8.46957 28 7.96086 27.7893 7.58579 27.4142C7.21071 27.0391 7 26.5304 7 26V14Z" fill="#0D0D0D"/>
<path fill-rule="evenodd" clip-rule="evenodd" d="M33.868 10.3521L26.932 15.1141C26.6669 15.296 26.4497 15.5392 26.2986 15.8229C26.1475 16.1066 26.067 16.4226 26.064 16.7441L26 23.1741C25.9968 23.502 26.0744 23.8256 26.2257 24.1164C26.3771 24.4073 26.5976 24.6565 26.868 24.8421L33.868 29.6481C34.1683 29.8542 34.5191 29.9745 34.8828 29.9958C35.2464 30.0172 35.6089 29.9388 35.9313 29.7692C36.2536 29.5996 36.5235 29.3452 36.7119 29.0334C36.9002 28.7216 36.9998 28.3643 37 28.0001V12.0001C36.9998 11.6358 36.9002 11.2785 36.7119 10.9668C36.5235 10.655 36.2536 10.4006 35.9313 10.231C35.6089 10.0613 35.2464 9.98298 34.8828 10.0043C34.5191 10.0257 34.1683 10.1459 33.868 10.3521ZM33 24.2001L30.01 22.1481L30.054 17.8221L33 15.8001V24.2001Z" fill="#0D0D0D"/>
</svg>
