<svg width="435" height="80" viewBox="0 0 435 80" fill="none" xmlns="http://www.w3.org/2000/svg">
<g clip-path="url(#clip0_1_390)">
<path fill-rule="evenodd" clip-rule="evenodd" d="M10 10.7734C10 9.00525 10.7024 7.30956 11.9526 6.05932C13.2029 4.80907 14.8986 4.1067 16.6667 4.1067H23.3333C24.5467 4.1067 25.6867 4.43003 26.6667 5.00003C27.6795 4.41338 28.8295 4.10517 30 4.1067H36.6667C39.09 4.1067 41.2133 5.40003 42.38 7.3367C43.08 6.7767 43.9 6.35003 44.82 6.10336L51.26 4.38003C52.1057 4.15317 52.9878 4.09514 53.856 4.20924C54.7241 4.32335 55.5613 4.60735 56.3197 5.04504C57.078 5.48273 57.7428 6.06552 58.2759 6.76014C58.809 7.45476 59.2 8.24759 59.4267 9.09336L73.2267 60.61C73.4535 61.4557 73.5116 62.3379 73.3975 63.206C73.2834 64.0742 72.9993 64.9113 72.5617 65.6697C72.124 66.4281 71.5412 67.0928 70.8466 67.6259C70.1519 68.159 69.3591 68.55 68.5133 68.7767L62.0733 70.5C61.2276 70.7269 60.3455 70.7849 59.4774 70.6708C58.6092 70.5567 57.772 70.2727 57.0137 69.835C56.2553 69.3973 55.5906 68.8145 55.0575 68.1199C54.5244 67.4253 54.1333 66.6325 53.9067 65.7867L43.3333 26.3167V64.1067C43.3333 65.8748 42.631 67.5705 41.3807 68.8207C40.1305 70.071 38.4348 70.7734 36.6667 70.7734H30C28.8295 70.7749 27.6795 70.4667 26.6667 69.88C25.6538 70.4667 24.5038 70.7749 23.3333 70.7734H16.6667C14.8986 70.7734 13.2029 70.071 11.9526 68.8207C10.7024 67.5705 10 65.8748 10 64.1067V10.7734ZM16.6667 10.7734H23.3333V64.1067H16.6667V10.7734ZM36.6667 64.1067H30V10.7734H36.6667V64.1067ZM46.5467 12.5434L52.9833 10.82L66.79 62.3367L60.35 64.06L46.5467 12.5434Z" fill="#F1F1F1"/>
</g>
<path d="M91.584 40.104C91.584 36.776 92.304 33.816 93.744 31.224C95.184 28.6 97.184 26.568 99.744 25.128C102.336 23.656 105.264 22.92 108.528 22.92C112.528 22.92 115.952 23.976 118.8 26.088C121.648 28.2 123.552 31.08 124.512 34.728H115.488C114.816 33.32 113.856 32.248 112.608 31.512C111.392 30.776 110 30.408 108.432 30.408C105.904 30.408 103.856 31.288 102.288 33.048C100.72 34.808 99.936 37.16 99.936 40.104C99.936 43.048 100.72 45.4 102.288 47.16C103.856 48.92 105.904 49.8 108.432 49.8C110 49.8 111.392 49.432 112.608 48.696C113.856 47.96 114.816 46.888 115.488 45.48H124.512C123.552 49.128 121.648 52.008 118.8 54.12C115.952 56.2 112.528 57.24 108.528 57.24C105.264 57.24 102.336 56.52 99.744 55.08C97.184 53.608 95.184 51.576 93.744 48.984C92.304 46.392 91.584 43.432 91.584 40.104ZM155.987 30.216V57H147.779V53.352C146.947 54.536 145.811 55.496 144.371 56.232C142.963 56.936 141.395 57.288 139.667 57.288C137.619 57.288 135.811 56.84 134.243 55.944C132.675 55.016 131.459 53.688 130.595 51.96C129.731 50.232 129.299 48.2 129.299 45.864V30.216H137.459V44.76C137.459 46.552 137.923 47.944 138.851 48.936C139.779 49.928 141.027 50.424 142.595 50.424C144.195 50.424 145.459 49.928 146.387 48.936C147.315 47.944 147.779 46.552 147.779 44.76V30.216H155.987ZM170.09 34.68C171.05 33.208 172.25 32.056 173.69 31.224C175.13 30.36 176.73 29.928 178.49 29.928V38.616H176.234C174.186 38.616 172.65 39.064 171.626 39.96C170.602 40.824 170.09 42.36 170.09 44.568V57H161.882V30.216H170.09V34.68ZM193.31 57.384C190.974 57.384 188.894 56.984 187.07 56.184C185.246 55.384 183.806 54.296 182.75 52.92C181.694 51.512 181.102 49.944 180.974 48.216H189.086C189.182 49.144 189.614 49.896 190.382 50.472C191.15 51.048 192.094 51.336 193.214 51.336C194.238 51.336 195.022 51.144 195.566 50.76C196.142 50.344 196.43 49.816 196.43 49.176C196.43 48.408 196.03 47.848 195.23 47.496C194.43 47.112 193.134 46.696 191.342 46.248C189.422 45.8 187.822 45.336 186.542 44.856C185.262 44.344 184.158 43.56 183.23 42.504C182.302 41.416 181.838 39.96 181.838 38.136C181.838 36.6 182.254 35.208 183.086 33.96C183.95 32.68 185.198 31.672 186.83 30.936C188.494 30.2 190.462 29.832 192.734 29.832C196.094 29.832 198.734 30.664 200.654 32.328C202.606 33.992 203.726 36.2 204.014 38.952H196.43C196.302 38.024 195.886 37.288 195.182 36.744C194.51 36.2 193.614 35.928 192.494 35.928C191.534 35.928 190.798 36.12 190.286 36.504C189.774 36.856 189.518 37.352 189.518 37.992C189.518 38.76 189.918 39.336 190.718 39.72C191.55 40.104 192.83 40.488 194.558 40.872C196.542 41.384 198.158 41.896 199.406 42.408C200.654 42.888 201.742 43.688 202.67 44.808C203.63 45.896 204.126 47.368 204.158 49.224C204.158 50.792 203.71 52.2 202.814 53.448C201.95 54.664 200.686 55.624 199.022 56.328C197.39 57.032 195.486 57.384 193.31 57.384ZM221.371 57.384C218.747 57.384 216.379 56.824 214.267 55.704C212.187 54.584 210.539 52.984 209.323 50.904C208.139 48.824 207.547 46.392 207.547 43.608C207.547 40.856 208.155 38.44 209.371 36.36C210.587 34.248 212.251 32.632 214.363 31.512C216.475 30.392 218.843 29.832 221.467 29.832C224.091 29.832 226.459 30.392 228.571 31.512C230.683 32.632 232.347 34.248 233.563 36.36C234.779 38.44 235.387 40.856 235.387 43.608C235.387 46.36 234.763 48.792 233.515 50.904C232.299 52.984 230.619 54.584 228.475 55.704C226.363 56.824 223.995 57.384 221.371 57.384ZM221.371 50.28C222.939 50.28 224.267 49.704 225.355 48.552C226.475 47.4 227.035 45.752 227.035 43.608C227.035 41.464 226.491 39.816 225.403 38.664C224.347 37.512 223.035 36.936 221.467 36.936C219.867 36.936 218.539 37.512 217.483 38.664C216.427 39.784 215.899 41.432 215.899 43.608C215.899 45.752 216.411 47.4 217.435 48.552C218.491 49.704 219.803 50.28 221.371 50.28ZM250.638 57.384C248.302 57.384 246.222 56.984 244.398 56.184C242.574 55.384 241.134 54.296 240.078 52.92C239.022 51.512 238.43 49.944 238.302 48.216H246.414C246.51 49.144 246.942 49.896 247.71 50.472C248.478 51.048 249.422 51.336 250.542 51.336C251.566 51.336 252.35 51.144 252.894 50.76C253.47 50.344 253.758 49.816 253.758 49.176C253.758 48.408 253.358 47.848 252.558 47.496C251.758 47.112 250.462 46.696 248.67 46.248C246.75 45.8 245.15 45.336 243.87 44.856C242.59 44.344 241.486 43.56 240.558 42.504C239.63 41.416 239.166 39.96 239.166 38.136C239.166 36.6 239.582 35.208 240.414 33.96C241.278 32.68 242.526 31.672 244.158 30.936C245.822 30.2 247.79 29.832 250.062 29.832C253.422 29.832 256.062 30.664 257.982 32.328C259.934 33.992 261.054 36.2 261.342 38.952H253.758C253.63 38.024 253.214 37.288 252.51 36.744C251.838 36.2 250.942 35.928 249.822 35.928C248.862 35.928 248.126 36.12 247.614 36.504C247.102 36.856 246.846 37.352 246.846 37.992C246.846 38.76 247.246 39.336 248.046 39.72C248.878 40.104 250.158 40.488 251.886 40.872C253.87 41.384 255.486 41.896 256.734 42.408C257.982 42.888 259.07 43.688 259.998 44.808C260.958 45.896 261.454 47.368 261.486 49.224C261.486 50.792 261.038 52.2 260.142 53.448C259.278 54.664 258.014 55.624 256.35 56.328C254.718 57.032 252.814 57.384 250.638 57.384ZM292.615 57.336C289.447 57.336 286.535 56.6 283.879 55.128C281.255 53.656 279.159 51.608 277.591 48.984C276.055 46.328 275.287 43.352 275.287 40.056C275.287 36.76 276.055 33.8 277.591 31.176C279.159 28.552 281.255 26.504 283.879 25.032C286.535 23.56 289.447 22.824 292.615 22.824C295.783 22.824 298.679 23.56 301.303 25.032C303.959 26.504 306.039 28.552 307.543 31.176C309.079 33.8 309.847 36.76 309.847 40.056C309.847 43.352 309.079 46.328 307.543 48.984C306.007 51.608 303.927 53.656 301.303 55.128C298.679 56.6 295.783 57.336 292.615 57.336ZM292.615 49.848C295.303 49.848 297.447 48.952 299.047 47.16C300.679 45.368 301.495 43 301.495 40.056C301.495 37.08 300.679 34.712 299.047 32.952C297.447 31.16 295.303 30.264 292.615 30.264C289.895 30.264 287.719 31.144 286.087 32.904C284.487 34.664 283.687 37.048 283.687 40.056C283.687 43.032 284.487 45.416 286.087 47.208C287.719 48.968 289.895 49.848 292.615 49.848ZM330.734 29.928C333.87 29.928 336.366 30.952 338.222 33C340.11 35.016 341.054 37.8 341.054 41.352V57H332.894V42.456C332.894 40.664 332.43 39.272 331.502 38.28C330.574 37.288 329.326 36.792 327.758 36.792C326.19 36.792 324.942 37.288 324.014 38.28C323.086 39.272 322.622 40.664 322.622 42.456V57H314.414V30.216H322.622V33.768C323.454 32.584 324.574 31.656 325.982 30.984C327.39 30.28 328.974 29.928 330.734 29.928ZM354.965 21.48V57H346.757V21.48H354.965ZM365.042 27.432C363.602 27.432 362.418 27.016 361.49 26.184C360.594 25.32 360.146 24.264 360.146 23.016C360.146 21.736 360.594 20.68 361.49 19.848C362.418 18.984 363.602 18.552 365.042 18.552C366.45 18.552 367.602 18.984 368.498 19.848C369.426 20.68 369.89 21.736 369.89 23.016C369.89 24.264 369.426 25.32 368.498 26.184C367.602 27.016 366.45 27.432 365.042 27.432ZM369.122 30.216V57H360.914V30.216H369.122ZM391.39 29.928C394.526 29.928 397.022 30.952 398.878 33C400.766 35.016 401.71 37.8 401.71 41.352V57H393.55V42.456C393.55 40.664 393.086 39.272 392.158 38.28C391.23 37.288 389.982 36.792 388.414 36.792C386.846 36.792 385.598 37.288 384.67 38.28C383.742 39.272 383.278 40.664 383.278 42.456V57H375.07V30.216H383.278V33.768C384.11 32.584 385.23 31.656 386.638 30.984C388.046 30.28 389.63 29.928 391.39 29.928ZM432.661 43.176C432.661 43.944 432.614 44.744 432.518 45.576H413.942C414.07 47.24 414.598 48.52 415.526 49.416C416.486 50.28 417.654 50.712 419.03 50.712C421.078 50.712 422.502 49.848 423.302 48.12H432.038C431.59 49.88 430.774 51.464 429.59 52.872C428.438 54.28 426.982 55.384 425.222 56.184C423.462 56.984 421.494 57.384 419.318 57.384C416.694 57.384 414.358 56.824 412.31 55.704C410.262 54.584 408.662 52.984 407.51 50.904C406.358 48.824 405.782 46.392 405.782 43.608C405.782 40.824 406.342 38.392 407.462 36.312C408.614 34.232 410.214 32.632 412.262 31.512C414.31 30.392 416.662 29.832 419.318 29.832C421.91 29.832 424.214 30.376 426.23 31.464C428.246 32.552 429.814 34.104 430.934 36.12C432.086 38.136 432.661 40.488 432.661 43.176ZM424.262 41.016C424.262 39.608 423.782 38.488 422.822 37.656C421.862 36.824 420.662 36.408 419.222 36.408C417.846 36.408 416.678 36.808 415.718 37.608C414.79 38.408 414.214 39.544 413.99 41.016H424.262Z" fill="white"/>
<defs>
<clipPath id="clip0_1_390">
<rect width="80" height="80" fill="white"/>
</clipPath>
</defs>
</svg>
