<svg width="36" height="36" viewBox="0 0 36 36" fill="none" xmlns="http://www.w3.org/2000/svg">
<path d="M18 21C21.309 21 24 18.309 24 15C24 11.691 21.309 9 18 9C14.691 9 12 11.691 12 15C12 18.309 14.691 21 18 21ZM18 12C19.6545 12 21 13.3455 21 15C21 16.6545 19.6545 18 18 18C16.3455 18 15 16.6545 15 15C15 13.3455 16.3455 12 18 12Z" fill="#0D0D0D"/>
<path d="M17.13 32.721C17.3839 32.9023 17.688 32.9998 18 32.9998C18.312 32.9998 18.6161 32.9023 18.87 32.721C19.326 32.3985 30.0435 24.66 30 15C30 8.3835 24.6165 3 18 3C11.3835 3 6.00001 8.3835 6.00001 14.9925C5.95651 24.66 16.674 32.3985 17.13 32.721ZM18 6C22.9635 6 27 10.0365 27 15.0075C27.0315 21.6645 20.418 27.642 18 29.6025C15.5835 27.6405 8.96851 21.6615 9.00001 15C9.00001 10.0365 13.0365 6 18 6Z" fill="#0D0D0D"/>
</svg>
