<svg width="36" height="36" viewBox="0 0 36 36" fill="none" xmlns="http://www.w3.org/2000/svg">
<path d="M30.5508 17.1492L17.2688 5.62148C17.1668 5.53359 17.0367 5.48438 16.8996 5.48438H13.7883C13.5281 5.48438 13.4086 5.80781 13.6055 5.97656L25.9172 16.6641H5.34375C5.18906 16.6641 5.0625 16.7906 5.0625 16.9453V19.0547C5.0625 19.2094 5.18906 19.3359 5.34375 19.3359H25.9137L13.602 30.0234C13.4051 30.1957 13.5246 30.5156 13.7848 30.5156H17.0016C17.0684 30.5156 17.1352 30.491 17.1844 30.4453L30.5508 18.8508C30.6725 18.7449 30.7701 18.6142 30.837 18.4675C30.9038 18.3207 30.9384 18.1613 30.9384 18C30.9384 17.8387 30.9038 17.6793 30.837 17.5325C30.7701 17.3858 30.6725 17.2551 30.5508 17.1492Z" fill="#0D0D0D"/>
</svg>
