<svg width="36" height="36" viewBox="0 0 36 36" fill="none" xmlns="http://www.w3.org/2000/svg">
<path d="M31.7812 5.55469H14.3438C14.1891 5.55469 14.0625 5.68125 14.0625 5.83594V7.80469C14.0625 7.95937 14.1891 8.08594 14.3438 8.08594H31.7812C31.9359 8.08594 32.0625 7.95937 32.0625 7.80469V5.83594C32.0625 5.68125 31.9359 5.55469 31.7812 5.55469ZM31.7812 20.4609H14.3438C14.1891 20.4609 14.0625 20.5875 14.0625 20.7422V22.7109C14.0625 22.8656 14.1891 22.9922 14.3438 22.9922H31.7812C31.9359 22.9922 32.0625 22.8656 32.0625 22.7109V20.7422C32.0625 20.5875 31.9359 20.4609 31.7812 20.4609ZM31.7812 27.9141H4.21875C4.06406 27.9141 3.9375 28.0406 3.9375 28.1953V30.1641C3.9375 30.3188 4.06406 30.4453 4.21875 30.4453H31.7812C31.9359 30.4453 32.0625 30.3188 32.0625 30.1641V28.1953C32.0625 28.0406 31.9359 27.9141 31.7812 27.9141ZM31.7812 13.0078H4.21875C4.06406 13.0078 3.9375 13.1344 3.9375 13.2891V15.2578C3.9375 15.4125 4.06406 15.5391 4.21875 15.5391H31.7812C31.9359 15.5391 32.0625 15.4125 32.0625 15.2578V13.2891C32.0625 13.1344 31.9359 13.0078 31.7812 13.0078Z" fill="#0D0D0D"/>
</svg>
