<svg width="40" height="40" viewBox="0 0 40 40" fill="none" xmlns="http://www.w3.org/2000/svg">
<g clip-path="url(#clip0_1_217)">
<path fill-rule="evenodd" clip-rule="evenodd" d="M5 5.38662C5 4.50256 5.35119 3.65472 5.97631 3.0296C6.60143 2.40448 7.44928 2.05329 8.33333 2.05329H11.6667C12.2733 2.05329 12.8433 2.21495 13.3333 2.49995C13.8398 2.20663 14.4148 2.05252 15 2.05329H18.3333C19.545 2.05329 20.6067 2.69995 21.19 3.66829C21.54 3.38829 21.95 3.17495 22.41 3.05162L25.63 2.18995C26.0529 2.07652 26.4939 2.04751 26.928 2.10456C27.3621 2.16161 27.7806 2.30361 28.1598 2.52246C28.539 2.7413 28.8714 3.0327 29.1379 3.38001C29.4045 3.72732 29.6 4.12374 29.7133 4.54662L36.6133 30.305C36.7268 30.7278 36.7558 31.1689 36.6987 31.6029C36.6417 32.037 36.4997 32.4556 36.2808 32.8348C36.062 33.214 35.7706 33.5463 35.4233 33.8129C35.076 34.0794 34.6796 34.275 34.2567 34.3883L31.0367 35.25C30.6138 35.3634 30.1728 35.3924 29.7387 35.3353C29.3046 35.2783 28.886 35.1363 28.5068 34.9174C28.1276 34.6986 27.7953 34.4072 27.5287 34.0599C27.2622 33.7126 27.0667 33.3162 26.9533 32.8933L21.6667 13.1583V32.0533C21.6667 32.9373 21.3155 33.7852 20.6904 34.4103C20.0652 35.0354 19.2174 35.3866 18.3333 35.3866H15C14.4148 35.3874 13.8398 35.2333 13.3333 34.94C12.8269 35.2333 12.2519 35.3874 11.6667 35.3866H8.33333C7.44928 35.3866 6.60143 35.0354 5.97631 34.4103C5.35119 33.7852 5 32.9373 5 32.0533V5.38662ZM8.33333 5.38662H11.6667V32.0533H8.33333V5.38662ZM18.3333 32.0533H15V5.38662H18.3333V32.0533ZM23.2733 6.27162L26.4917 5.40995L33.395 31.1683L30.175 32.03L23.2733 6.27162Z" fill="#0D0D0D"/>
</g>
<defs>
<clipPath id="clip0_1_217">
<rect width="40" height="40" fill="white"/>
</clipPath>
</defs>
</svg>
