<svg width="40" height="40" viewBox="0 0 40 40" fill="none" xmlns="http://www.w3.org/2000/svg">
<path d="M31.6667 30H15C14.1159 30 13.2681 29.6488 12.643 29.0237C12.0179 28.3986 11.6667 27.5507 11.6667 26.6667V6.66668C11.6667 5.78262 12.0179 4.93478 12.643 4.30965C13.2681 3.68453 14.1159 3.33334 15 3.33334H16.6667V11.6667L20 9.16668L23.3333 11.6667V3.33334H31.6667C32.5507 3.33334 33.3986 3.68453 34.0237 4.30965C34.6488 4.93478 35 5.78262 35 6.66668V26.6667C35 27.5507 34.6488 28.3986 34.0237 29.0237C33.3986 29.6488 32.5507 30 31.6667 30ZM28.3333 33.3333V36.6667H8.33333C7.44928 36.6667 6.60143 36.3155 5.97631 35.6904C5.35119 35.0652 5 34.2174 5 33.3333V10H8.33333V33.3333H28.3333Z" fill="#0D0D0D"/>
</svg>
